Coordinates
version=1
nRows=16
nColumns=40
inDegrees=yes

Units are S.I. units (second, meters, Newtons, ...)
Angles are in degrees.

endheader
time	pelvis_tilt	pelvis_list	pelvis_rotation	pelvis_tx	pelvis_ty	pelvis_tz	hip_flexion_r	hip_adduction_r	hip_rotation_r	knee_angle_r	knee_angle_r_beta	ankle_angle_r	subtalar_angle_r	mtp_angle_r	hip_flexion_l	hip_adduction_l	hip_rotation_l	knee_angle_l	knee_angle_l_beta	ankle_angle_l	subtalar_angle_l	mtp_angle_l	lumbar_extension	lumbar_bending	lumbar_rotation	arm_flex_r	arm_add_r	arm_rot_r	elbow_flex_r	pro_sup_r	wrist_flex_r	wrist_dev_r	arm_flex_l	arm_add_l	arm_rot_l	elbow_flex_l	pro_sup_l	wrist_flex_l	wrist_dev_l
     45.93500000	     -3.74396409	     -4.14430491	      7.51903607	      1.06746283	      0.92874925	      0.42335963	      4.31406400	     -2.76044271	    -15.11096946	     28.30068192	     28.30068192	     13.10861004	     -5.24343289	    -10.73580254	     22.94377809	     -3.97631901	     -0.94609864	     22.96279423	     22.96279423	      7.26038162	    -10.42761962	      1.88353910	     -7.55467330	      4.09134786	      2.92984179	     27.31828956	    -13.64594372	     -8.07839201	     81.40313203	     45.30967664	      0.00000000	      0.00000000	      0.39521202	     -8.90250524	      1.28968532	     29.70137358	     45.12954502	      0.00000000	      0.00000000
     45.94828571	     -3.57493250	     -4.00807115	      7.13801310	      1.06789308	      0.92933555	      0.42061847	      5.61908178	     -3.58224066	    -14.42355570	     31.67113687	     31.67113687	     12.22791756	     -6.15079995	    -11.53289021	     22.22332364	     -3.84345420	     -1.38001155	     22.92778520	     22.92778520	      7.65853528	    -10.41053561	      1.68536068	     -7.67545752	      3.98512528	      3.27916023	     25.65354085	    -13.78971701	     -7.80516101	     79.35867268	     45.36022435	      0.00000000	      0.00000000	      1.59437232	     -9.03963883	      1.29404170	     30.42449555	     45.15333516	      0.00000000	      0.00000000
     45.96157143	     -3.39543294	     -3.95727010	      6.75441505	      1.06817171	      0.92979642	      0.41810941	      6.96862055	     -4.17036369	    -13.44645721	     34.89028491	     34.89028491	     10.31997961	     -8.04839021	    -14.06441968	     21.54122690	     -3.79749969	     -1.73991645	     22.92511964	     22.92511964	      7.93669005	    -10.51767775	      1.24269064	     -7.65748406	      3.96559871	      2.79305106	     25.38102981	    -13.19032696	     -6.88753323	     73.99734072	     45.49621209	      0.00000000	      0.00000000	      2.22096737	     -9.50254433	      1.85650015	     31.54161433	     45.11617627	      0.00000000	      0.00000000
     45.97485714	     -3.19115638	     -3.86352238	      6.35457561	      1.06824907	      0.93009456	      0.41568132	      8.50011655	     -4.81716009	    -12.46256183	     38.44195007	     38.44195007	      8.71651162	     -9.52104545	    -15.06015443	     20.88118725	     -3.69919250	     -2.08226419	     23.00922997	     23.00922997	      8.26251882	    -10.67914006	      0.92109211	     -7.80629250	      3.91158355	      2.98544989	     24.22427109	    -13.25225915	     -6.21230429	     70.64909174	     45.57172050	      0.00000000	      0.00000000	      3.31474046	     -9.77712171	      2.05601379	     32.74343842	     45.12876833	      0.00000000	      0.00000000
     45.98814286	     -3.01003387	     -3.74895749	      5.94158481	      1.06819518	      0.93026547	      0.41342672	     10.17675224	     -5.44516497	    -11.43751285	     42.08265874	     42.08265874	      6.95657089	    -10.91040722	    -15.69352423	     20.22992769	     -3.57939959	     -2.42266757	     23.04764878	     23.04764878	      8.59514232	    -10.81985212	      0.54960153	     -7.89427842	      3.84545920	      2.79886336	     23.56253804	    -12.91853840	     -5.35706371	     66.34165674	     45.66976030	      0.00000000	      0.00000000	      4.16685203	    -10.26815720	      2.41767164	     33.88581871	     45.12515401	      0.00000000	      0.00000000
     46.00142857	     -2.79773673	     -3.53810866	      5.51976051	      1.06795622	      0.93029921	      0.41123377	     11.92065969	     -6.16418355	    -10.40551181	     45.79947390	     45.79947390	      5.39493293	    -11.79462565	    -15.69310969	     19.59456823	     -3.36887034	     -2.84984779	     23.17521499	     23.17521499	      8.96221272	    -10.96216207	      0.35769733	     -8.12595168	      3.66506551	      2.91558626	     21.94599932	    -12.96941171	     -5.00124516	     64.40332275	     45.71213494	      0.00000000	      0.00000000	      5.45776464	    -10.58255983	      2.37612261	     34.67393431	     45.15606660	      0.00000000	      0.00000000
     46.01471429	     -2.67812884	     -3.45628600	      5.09376713	      1.06754593	      0.93025010	      0.40922775	     13.80512252	     -6.58681832	     -9.25450930	     49.33460234	     49.33460234	      3.68138719	    -12.95500812	    -15.12067781	     19.09489615	     -3.27642598	     -3.17144832	     23.29995921	     23.29995921	      9.31331127	    -11.13078560	      0.16474707	     -8.19245185	      3.64661251	      3.28992016	     20.50761539	    -13.19121128	     -4.55316509	     61.21215958	     45.79334697	      0.00000000	      0.00000000	      6.80820828	    -10.81076464	      2.45327507	     35.61262195	     45.17534228	      0.00000000	      0.00000000
     46.02800000	     -2.36990816	     -3.51569934	      4.73885456	      1.06712152	      0.93051869	      0.40738573	     15.42146119	     -6.73462985	     -8.23277942	     52.60141552	     52.60141552	      2.43529016	    -13.69456761	    -13.04084544	     18.48072158	     -3.35820123	     -3.43598705	     23.55003860	     23.55003860	      9.73887807	    -11.25274915	     -0.08168667	     -8.36728889	      3.78395972	      3.07143614	     20.35026832	    -12.90726408	     -3.61755063	     55.01632943	     45.95533110	      0.00000000	      0.00000000	      7.94171305	    -11.32949735	      2.99228128	     36.65031133	     45.15066365	      0.00000000	      0.00000000
     46.04128571	     -2.26989691	     -3.33085888	      4.33395784	      1.06644796	      0.93053593	      0.40547544	     17.26880795	     -7.20627487	     -7.27506997	     55.66145663	     55.66145663	      0.99912585	    -14.20378269	    -12.15633791	     17.94520437	     -3.14656102	     -3.81396574	     23.54149463	     23.54149463	     10.11186687	    -11.26255732	     -0.20049164	     -8.50039179	      3.67157768	      2.95761647	     18.91085665	    -12.81663057	     -3.20789465	     52.76610779	     46.00483924	      0.00000000	      0.00000000	      9.08803493	    -11.73705007	      2.97945558	     37.41272744	     45.17757922	      0.00000000	      0.00000000
     46.05457143	     -2.04342638	     -3.35955195	      4.00601774	      1.06576679	      0.93087828	      0.40385954	     18.97476890	     -7.33846342	     -6.49610000	     58.57024125	     58.57024125	      1.10181221	    -13.82163156	     -7.17455738	     17.39144316	     -3.21454812	     -4.20028182	     23.70636246	     23.70636246	     10.59222852	    -11.09278444	     -0.13506580	     -8.59156307	      3.79502655	      2.10349169	     19.57363867	    -12.11780316	     -1.91665605	     45.05700043	     46.18654022	      0.00000000	      0.00000000	      9.76113024	    -12.62671711	      3.58255350	     38.69034695	     45.17695852	      0.00000000	      0.00000000
     46.06785714	     -1.88688589	     -3.29966475	      3.65878117	      1.06504235	      0.93122571	      0.40227112	     20.51672024	     -7.52519150	     -5.78792673	     60.73201054	     60.73201054	     -0.03051932	    -14.34623229	     -6.56172417	     16.80977200	     -3.14746933	     -4.54006413	     23.67792274	     23.67792274	     10.92742150	    -11.07988349	     -0.20907013	     -8.78731622	      3.83387746	      2.27076446	     17.68487481	    -12.34350139	     -1.68801179	     43.35292288	     46.22209999	      0.00000000	      0.00000000	     11.13986326	    -12.92032129	      3.39406037	     39.53648412	     45.22712591	      0.00000000	      0.00000000
     46.08114286	     -1.68875745	     -3.43014057	      3.33368656	      1.06429359	      0.93180752	      0.40094959	     21.95088998	     -7.45654415	     -5.27446283	     62.59020290	     62.59020290	      0.14180466	    -14.14366658	     -3.02467817	     16.22235702	     -3.36011095	     -5.04050553	     23.70983963	     23.70983963	     11.47880430	    -10.54231390	     -0.14086452	     -8.90163317	      4.08496734	      2.08312269	     17.37564881	    -12.16580771	     -1.06022839	     37.49392568	     46.37416913	      0.00000000	      0.00000000	     12.37823531	    -13.38542897	      3.59980843	     40.18085911	     45.27405704	      0.00000000	      0.00000000
     46.09442857	     -1.53777545	     -3.51280712	      3.01281155	      1.06354239	      0.93243070	      0.39970935	     23.20302113	     -7.44118505	     -4.91535443	     63.76290167	     63.76290167	     -0.36048494	    -14.41201425	     -2.38569563	     15.58981418	     -3.44592649	     -5.32174467	     23.54197366	     23.54197366	     11.81955199	    -10.43901591	     -0.13952882	     -9.08138764	      4.26667915	      2.39587371	     15.50151065	    -12.51855318	     -0.91021735	     35.44027572	     46.42294349	      0.00000000	      0.00000000	     13.76001826	    -13.57163177	      3.37219714	     41.22560525	     45.33597180	      0.00000000	      0.00000000
     46.10771429	     -1.40924281	     -3.56943326	      2.72456222	      1.06272878	      0.93315251	      0.39858179	     24.33754853	     -7.44480747	     -4.68495247	     64.45529860	     64.45529860	     -0.56779695	    -14.61191077	     -1.78559430	     14.94868193	     -3.53015116	     -5.74396666	     23.30607145	     23.30607145	     12.08618363	    -10.10541247	     -0.15489258	     -9.22527029	      4.44206458	      2.45419523	     13.83176873	    -12.70384360	     -0.74646083	     33.21053750	     46.48247145	      0.00000000	      0.00000000	     15.07043631	    -13.86503753	      3.20596161	     42.03944055	     45.38678885	      0.00000000	      0.00000000
     46.12100000	     -1.29659627	     -3.68650169	      2.51129111	      1.06191207	      0.93390616	      0.39756012	     25.29067164	     -7.42713672	     -4.70683745	     64.58651740	     64.58651740	     -0.65361590	    -14.72648069	     -1.52768289	     14.32403148	     -3.64390234	     -5.98306838	     23.03827001	     23.03827001	     12.34194115	     -9.88251035	     -0.17767263	     -9.35477750	      4.69707990	      2.06458514	     12.15536073	    -12.73782163	     -0.65282569	     31.84796096	     46.51593522	      0.00000000	      0.00000000	     16.17317101	    -14.37659723	      3.01689877	     42.61728249	     45.42760927	      0.00000000	      0.00000000
     46.13428571	     -1.17949231	     -3.82007710	      2.22118651	      1.06110485	      0.93474907	      0.39687917	     26.14943717	     -7.30178440	     -4.69104932	     64.30156753	     64.30156753	     -0.14937851	    -14.61533901	      0.06193434	     13.65764921	     -3.89062798	     -6.65317744	     22.75068814	     22.75068814	     12.79665051	     -8.99727362	     -0.16571514	     -9.42621600	      4.90502975	      1.85088946	     11.77744463	    -12.56735088	     -0.49709556	     26.71958717	     46.69873974	      0.00000000	      0.00000000	     17.09573751	    -14.90135933	      2.80222109	     43.87047571	     45.52062906	      0.00000000	      0.00000000
